<?xml version="1.0" encoding="utf-8"?>
<!-- Generator: Adobe Illustrator 20.1.0, SVG Export Plug-In . SVG Version: 6.00 Build 0)  -->
<svg version="1.1" id="Layer_1" xmlns="http://www.w3.org/2000/svg" xmlns:xlink="http://www.w3.org/1999/xlink" x="0px" y="0px"
	 viewBox="0 0 368 58" style="enable-background:new 0 0 368 58;" xml:space="preserve">
<style type="text/css">
	.st0{fill:#494A41;}
</style>
<path class="st0" d="M1,2.1h1.9v52.2H33v1.7H1V2.1z"/>
<path class="st0" d="M58.2,2.1h2.1l19,53.8h-1.9l-6.2-17H46.8l-6.1,17h-2L58.2,2.1z M70.8,37.3L59.2,3.9L47.4,37.3H70.8z"/>
<path class="st0" d="M86.9,2.1H101c9.5,0,18.6,2.3,18.6,12.4c0,7.6-4.9,11.7-12.9,12.7c7.6,0.8,14.3,5.2,14.3,13.8
	c0,10.5-7.5,14.9-19.6,14.9H86.9V2.1z M99.8,26.3c6.4,0,17.9-0.3,17.9-11.7c0-9.2-8.7-10.8-16.4-10.8H88.7v22.6L99.8,26.3L99.8,26.3
	z M101.2,54.2c7.4,0,17.9-1.7,17.9-13.4c0-10.5-10.3-12.9-18.9-12.9H88.7v26.3L101.2,54.2L101.2,54.2z"/>
<path class="st0" d="M129.9,2.1h29.7v1.7h-27.8v23.3h23.5v1.7h-23.5v25.5h29.5v1.7h-31.4L129.9,2.1L129.9,2.1z"/>
<path d="M279.5,45.1C275.7,53,268.6,57,258.3,57c-15.9,0-24.4-12.8-24.4-28.3C233.9,13,242.4,1,258.3,1c9.4,0,16.3,3.8,20.5,10.4
	l-1.7,1c-3.6-6.3-10.4-9.8-18.9-9.8c-14.6,0-22.5,11.4-22.5,26c0,14.6,7.9,26.7,22.5,26.7c9.5,0,16-3.8,19.5-11L279.5,45.1z"/>
<path d="M303.7,2.1h2.1l19,53.8H323l-6.2-17h-24.5l-6.1,17h-2L303.7,2.1z M316.3,37.3L304.7,3.9l-11.8,33.4H316.3z"/>
<path d="M332.4,2.1H348c12.1,0,18.5,4.8,18.5,14.6c0,11.1-7.9,15.2-18.4,15.2h-13.9v24h-1.9V2.1z M347.7,30.2
	c10.9,0,16.8-4.3,16.8-13.6c0-9.4-6.6-12.9-16.2-12.9h-14.1v26.5H347.7z"/>
<path class="st0" d="M198,28.4L224.4,2l1.2,1.1l-25.4,25.3l27.5,27.5l-1.1,1.1L198,28.4z"/>
<path d="M172.1,56.6l-1.1-1.2l27-27L172.4,2.8l1.1-1.1l26.7,26.7L172.1,56.6z"/>
</svg>
